<?xml version="1.0" standalone="no"?>
<!DOCTYPE svg PUBLIC "-//W3C//DTD SVG 20010904//EN"
 "http://www.w3.org/TR/2001/REC-SVG-20010904/DTD/svg10.dtd">
<svg version="1.0" xmlns="http://www.w3.org/2000/svg"
 width="363.000000pt" height="363.000000pt" viewBox="0 0 363.000000 363.000000"
 preserveAspectRatio="xMidYMid meet">
<metadata>
Created by potrace 1.14, written by Peter Selinger 2001-2017
</metadata>
<g transform="translate(0.000000,363.000000) scale(0.100000,-0.100000)"
fill="#000000" stroke="none">
<path d="M0 1815 l0 -1815 1815 0 1815 0 0 1815 0 1815 -1815 0 -1815 0 0
-1815z m415 769 c26 -12 51 -47 126 -174 52 -88 97 -160 100 -160 4 0 47 69
97 153 49 83 98 160 108 169 44 39 125 30 164 -19 40 -51 30 -83 -96 -299 -64
-109 -121 -209 -127 -221 -8 -18 10 -55 117 -240 83 -145 126 -230 126 -249 0
-62 -53 -114 -116 -114 -54 0 -77 25 -174 189 -52 88 -97 161 -101 161 -3 0
-47 -73 -99 -161 -78 -135 -99 -164 -126 -175 -42 -18 -59 -18 -98 1 -38 18
-66 62 -66 102 0 18 46 105 130 248 l129 219 -18 31 c-11 16 -67 113 -127 215
-121 208 -131 244 -84 295 43 46 81 55 135 29z m1282 -10 c40 -30 57 -85 39
-127 -28 -66 -42 -71 -213 -77 l-155 -5 -84 -155 c-63 -117 -84 -164 -84 -193
0 -29 21 -80 81 -198 l81 -159 138 0 c150 0 178 -6 215 -46 30 -32 34 -97 9
-132 -31 -45 -63 -52 -227 -52 -261 0 -281 14 -423 292 l-99 193 0 100 0 100
94 179 c115 220 155 266 251 297 14 4 98 7 187 6 147 -2 164 -4 190 -23z m293
-3 c46 -33 50 -54 50 -253 l0 -188 160 0 160 0 0 191 c0 214 5 235 68 265 67
31 143 -12 157 -89 3 -18 5 -249 3 -514 l-3 -482 -29 -30 c-54 -56 -139 -50
-177 13 -17 28 -19 53 -19 224 l0 192 -160 0 -160 0 0 -185 c0 -208 -8 -243
-59 -269 -38 -20 -74 -20 -111 -1 -61 31 -60 26 -60 574 l0 499 27 32 c14 18
36 36 47 41 28 11 75 3 106 -20z m1273 15 c91 -33 157 -122 157 -212 0 -139
-175 -170 -217 -39 l-10 30 -143 3 -143 3 29 -38 c15 -21 124 -163 242 -316
118 -153 220 -291 228 -305 8 -15 14 -52 14 -83 0 -47 -5 -65 -32 -105 -21
-30 -50 -57 -78 -72 -44 -23 -50 -23 -275 -20 -256 3 -260 4 -329 75 -60 62
-81 172 -43 224 29 38 100 51 152 27 27 -12 55 -54 55 -83 0 -13 21 -15 145
-15 80 0 145 2 145 4 0 2 -104 136 -231 297 -126 162 -242 313 -256 337 -64
108 -5 256 117 290 55 16 427 14 473 -2z m195 -1453 l3 -23 -1611 0 c-1468 0
-1611 1 -1617 16 -3 9 0 20 8 25 8 5 698 8 1614 6 l1600 -2 3 -22z m-2440
-305 c16 -16 15 -28 -3 -28 -8 0 -15 5 -15 10 0 6 -18 10 -40 10 -22 0 -40 -4
-40 -8 0 -5 25 -40 55 -79 67 -87 65 -103 -10 -103 -35 0 -57 5 -65 15 -16 19
-5 34 12 17 12 -12 88 -17 88 -6 0 4 -25 40 -56 80 -47 62 -55 76 -44 89 15
18 100 21 118 3z m202 2 c0 -5 -15 -10 -34 -10 -31 0 -37 -5 -56 -43 l-22 -44
21 -41 c19 -37 25 -42 56 -42 19 0 35 -5 35 -11 0 -6 -17 -9 -42 -7 -38 3 -45
7 -65 43 -29 51 -29 69 2 122 24 39 29 43 65 43 22 0 40 -4 40 -10z m198 -2
c27 -27 7 -78 -30 -78 -23 0 -23 0 12 -61 29 -49 33 -68 12 -55 -6 3 -24 31
-41 61 -36 63 -51 69 -52 23 -2 -69 -4 -81 -16 -85 -10 -4 -13 20 -13 95 0 54
3 102 7 105 11 12 108 8 121 -5z m212 2 c0 -5 -11 -10 -25 -10 -25 0 -25 -1
-25 -85 0 -84 0 -85 25 -85 14 0 25 -4 25 -10 0 -6 -28 -10 -65 -10 -37 0 -65
4 -65 10 0 6 14 10 30 10 l30 0 0 85 0 85 -30 0 c-16 0 -30 5 -30 10 0 6 28
10 65 10 37 0 65 -4 65 -10z m198 -2 c13 -13 16 -66 6 -92 -4 -12 -20 -16 -55
-16 l-49 0 0 -46 c0 -32 -4 -44 -12 -42 -12 4 -22 165 -13 196 6 16 107 16
123 0z m202 -8 c0 -11 -4 -20 -10 -20 -5 0 -10 5 -10 10 0 6 -9 10 -20 10 -19
0 -20 -7 -20 -95 0 -57 -4 -95 -10 -95 -6 0 -10 38 -10 95 0 78 -3 95 -15 95
-8 0 -15 -4 -15 -10 0 -5 -4 -10 -10 -10 -5 0 -10 9 -10 20 0 18 7 20 65 20
58 0 65 -2 65 -20z m190 10 c0 -5 -11 -10 -25 -10 -25 0 -25 -1 -25 -85 0 -83
0 -85 24 -85 14 0 28 -4 31 -10 4 -6 -20 -10 -65 -10 -45 0 -69 4 -65 10 3 6
17 10 31 10 24 0 24 2 24 85 l0 85 -30 0 c-16 0 -30 5 -30 10 0 6 28 10 65 10
37 0 65 -4 65 -10z m186 -43 l26 -53 -26 -53 c-35 -68 -60 -67 -95 3 l-24 48
26 54 c36 72 58 73 93 1z m152 -27 c24 -44 45 -80 46 -80 2 0 3 33 3 73 1 112
18 95 21 -20 4 -132 -11 -136 -70 -20 l-43 82 -3 -82 c-4 -121 -22 -103 -22
22 0 77 3 105 13 105 6 0 31 -36 55 -80z m269 65 c7 -20 -6 -33 -16 -17 -5 9
-24 12 -51 10 l-42 -3 56 -72 c31 -39 56 -81 56 -92 0 -19 -6 -21 -60 -21 -45
0 -62 4 -67 15 -3 9 -2 19 2 23 4 4 10 1 12 -5 4 -12 93 -19 93 -8 0 3 -25 37
-55 76 -75 97 -74 109 12 109 39 0 55 -4 60 -15z"/>
<path d="M316 2559 c-26 -21 -51 -57 -44 -65 3 -2 25 3 51 12 35 12 48 22 56
45 9 27 8 29 -13 29 -13 0 -35 -9 -50 -21z"/>
<path d="M865 2544 c-14 -15 -25 -31 -25 -35 0 -14 57 11 81 37 l22 24 -27 0
c-16 0 -37 -10 -51 -26z"/>
<path d="M407 2553 c-15 -15 -1 -44 124 -259 113 -193 130 -229 121 -247 -5
-12 -67 -118 -136 -236 -100 -168 -124 -216 -115 -227 6 -8 15 -14 19 -14 4 0
65 99 135 220 71 121 132 220 136 220 4 0 51 -75 104 -167 162 -278 176 -297
191 -259 3 8 -56 119 -130 246 -75 128 -136 234 -136 236 0 3 61 108 136 234
127 214 152 271 111 258 -6 -3 -68 -100 -137 -216 -69 -116 -128 -214 -132
-217 -3 -4 -66 93 -138 214 -73 122 -136 221 -140 221 -4 0 -10 -3 -13 -7z"/>
<path d="M320 2483 c-19 -8 -37 -17 -39 -19 -4 -3 92 -148 112 -169 5 -5 -5
16 -23 48 -17 31 -30 57 -27 57 2 0 33 -43 67 -95 34 -52 65 -95 67 -95 4 0
-61 121 -84 155 -7 11 -13 24 -13 29 0 6 34 -39 75 -98 41 -60 77 -111 81
-115 7 -6 -35 69 -71 129 -65 105 -54 107 16 3 51 -76 88 -123 58 -73 -91 151
-163 260 -173 259 -6 0 -27 -7 -46 -16z"/>
<path d="M824 2473 c-14 -3 -42 -41 -88 -119 -67 -114 -73 -137 -42 -163 10
-9 27 13 78 101 36 62 76 130 88 151 24 40 22 42 -36 30z"/>
<path d="M577 2036 c-46 -21 -50 -25 -172 -240 -69 -120 -124 -220 -123 -221
2 -2 23 7 47 19 41 20 53 36 172 240 71 120 128 220 127 221 -2 2 -24 -7 -51
-19z"/>
<path d="M696 1939 c-3 -8 -14 -38 -25 -67 l-19 -53 24 -27 c25 -27 25 -27 13
-2 -12 24 -11 25 8 7 11 -9 22 -15 25 -12 3 3 20 -17 38 -45 18 -27 34 -50 37
-50 5 0 -33 68 -66 120 -37 56 10 5 54 -60 26 -39 52 -73 58 -77 6 -3 3 4 -6
18 -22 31 -22 45 0 28 17 -13 17 -12 2 11 -9 14 -40 66 -69 115 -64 107 -68
113 -74 94z m22 -144 c-3 -3 -9 2 -12 12 -6 14 -5 15 5 6 7 -7 10 -15 7 -18z
m76 -15 c25 -38 36 -65 18 -44 -14 15 -54 84 -49 84 2 0 16 -18 31 -40z"/>
<path d="M324 1556 c-42 -19 -47 -30 -25 -57 l19 -23 28 34 c45 52 35 71 -22
46z"/>
<path d="M965 1541 c-8 -15 3 -31 21 -31 9 0 14 7 12 17 -4 20 -24 28 -33 14z"/>
<path d="M394 1519 c-3 -6 1 -18 9 -27 13 -12 19 -13 31 -3 8 7 12 19 9 27 -6
17 -39 19 -49 3z"/>
<path d="M915 1480 c3 -5 11 -10 16 -10 6 0 7 5 4 10 -3 6 -11 10 -16 10 -6 0
-7 -4 -4 -10z"/>
<path d="M1284 2554 c-18 -9 -42 -26 -54 -39 l-21 -23 28 7 c25 5 113 58 113
67 0 9 -38 2 -66 -12z"/>
<path d="M1375 2546 c-49 -22 -78 -62 -171 -236 l-89 -165 0 -80 0 -80 89
-170 c100 -191 106 -199 159 -226 33 -17 56 -19 185 -17 139 3 147 4 147 23 0
19 -8 20 -155 25 -93 3 -163 10 -176 17 -11 7 -61 90 -112 191 -123 241 -123
235 -6 461 47 91 99 178 115 194 l29 27 154 0 c122 0 155 3 159 14 12 30 -16
36 -158 36 -95 -1 -150 -5 -170 -14z"/>
<path d="M1675 2470 c-8 -13 3 -30 20 -30 14 0 27 24 18 34 -10 9 -31 7 -38
-4z"/>
<path d="M1200 2454 c-8 -3 -55 -80 -105 -172 l-89 -167 -1 -90 0 -90 88 -177
88 -178 40 20 c21 11 39 23 39 26 0 3 -41 78 -90 168 -132 237 -132 271 -1
517 79 149 80 156 31 143z"/>
<path d="M1228 1575 c-34 -19 -35 -25 -2 -55 l25 -24 27 34 c15 19 27 39 27
45 0 16 -48 16 -77 0z"/>
<path d="M1676 1524 c-8 -20 1 -34 20 -34 20 0 30 30 13 41 -20 12 -26 11 -33
-7z"/>
<path d="M1903 2569 c-29 -8 -72 -53 -62 -64 2 -2 20 2 40 8 25 7 39 20 47 39
6 15 10 28 9 27 -1 0 -17 -5 -34 -10z"/>
<path d="M2464 2569 c-31 -9 -72 -45 -62 -55 12 -12 57 9 77 37 12 16 20 29
19 28 -2 0 -17 -5 -34 -10z"/>
<path d="M1962 2551 c-9 -6 -12 -118 -10 -492 3 -476 3 -484 23 -484 19 0 20
8 23 233 l2 232 250 0 250 0 0 -222 c0 -123 4 -229 9 -237 5 -8 16 -11 25 -8
14 6 16 55 16 485 0 386 -3 482 -13 491 -32 26 -37 -8 -37 -236 l0 -223 -250
0 -250 0 0 224 c0 227 -5 258 -38 237z"/>
<path d="M1866 2479 l-26 -20 0 -468 c0 -459 0 -469 21 -495 27 -35 52 -33 83
6 23 30 24 33 8 42 -9 5 -20 14 -24 20 -4 6 -8 219 -8 474 0 501 2 485 -54
441z"/>
<path d="M2410 2471 l-25 -7 -3 -167 -2 -167 40 0 40 0 0 175 c0 186 2 180
-50 166z"/>
<path d="M2423 1957 l-43 -47 0 -175 c0 -186 7 -222 49 -259 22 -20 22 -20 58
17 l37 36 -25 20 c-24 19 -24 21 -29 236 l-5 218 -42 -46z"/>
<path d="M1975 1520 c-8 -13 4 -32 16 -25 12 8 12 35 0 35 -6 0 -13 -4 -16
-10z"/>
<path d="M2540 1510 c0 -5 7 -10 15 -10 8 0 15 5 15 10 0 6 -7 10 -15 10 -8 0
-15 -4 -15 -10z"/>
<path d="M2784 2559 c-16 -5 -41 -20 -54 -34 l-24 -25 33 6 c28 6 89 51 79 59
-2 1 -17 -2 -34 -6z"/>
<path d="M2854 2550 c-37 -15 -64 -59 -64 -106 0 -41 12 -58 263 -381 145
-186 269 -348 276 -361 9 -18 9 -28 -1 -50 l-13 -27 -211 -3 c-201 -2 -212 -1
-237 18 -15 12 -30 36 -35 53 -5 18 -15 33 -24 35 -52 10 -7 -111 52 -140 30
-15 65 -18 244 -18 l208 0 34 34 c27 27 34 42 34 73 -1 21 -6 47 -13 59 -7 11
-114 150 -238 310 -302 387 -299 383 -299 405 0 10 9 28 20 39 19 19 33 20
223 20 198 0 204 -1 224 -22 11 -13 24 -34 28 -48 10 -35 24 -50 41 -43 22 8
17 54 -10 94 -43 63 -69 69 -288 68 -106 0 -203 -4 -214 -9z"/>
<path d="M2877 2453 c-12 -11 -8 -23 8 -23 8 0 15 7 15 15 0 16 -12 20 -23 8z"/>
<path d="M3268 2368 c-44 -25 -45 -31 -18 -58 20 -20 20 -20 54 18 25 27 32
40 24 49 -14 17 -16 16 -60 -9z"/>
<path d="M3350 2326 c0 -9 7 -16 16 -16 17 0 14 22 -4 28 -7 2 -12 -3 -12 -12z"/>
<path d="M3071 1968 c182 -253 183 -257 11 -45 -57 70 -106 127 -108 127 -3 0
45 -66 107 -147 107 -142 98 -139 -39 12 l-64 70 51 -67 c28 -38 74 -98 103
-135 l51 -68 -52 50 -53 50 58 -77 c55 -72 62 -78 96 -78 75 0 85 20 40 79
-122 157 -325 411 -328 411 -2 0 55 -82 127 -182z"/>
<path d="M2704 1727 c-23 -20 -27 -31 -27 -71 1 -26 4 -50 7 -53 3 -3 20 3 38
14 29 17 33 24 31 57 -2 21 2 47 8 57 15 28 -23 25 -57 -4z"/>
<path d="M2740 1588 c-19 -12 -37 -23 -39 -25 -3 -2 6 -15 20 -29 l25 -25 26
37 c15 20 24 43 21 50 -7 18 -12 18 -53 -8z"/>
<path d="M3270 1510 c0 -13 7 -20 20 -20 13 0 20 7 20 20 0 13 -7 20 -20 20
-13 0 -20 -7 -20 -20z"/>
<path d="M1312 795 c-2 -25 0 -26 46 -23 39 3 47 6 47 23 0 17 -8 20 -45 23
-43 3 -46 1 -48 -23z"/>
<path d="M1730 776 c0 -45 1 -46 33 -46 46 0 59 12 55 51 -3 32 -5 34 -45 37
l-43 3 0 -45z"/>
<path d="M2331 774 l-21 -46 20 -39 c11 -21 25 -39 31 -39 5 0 18 19 29 42 18
41 18 42 -3 85 -11 23 -24 43 -29 43 -4 0 -16 -21 -27 -46z"/>
</g>
</svg>
