<svg id="图层_1" data-name="图层 1" xmlns="http://www.w3.org/2000/svg" viewBox="0 0 79.4 21.06"><defs><style>.cls-1{fill:#fff;}</style></defs><path class="cls-1" d="M198.22,36.72v17a4.06,4.06,0,0,1-4.05,4.05H193A4.06,4.06,0,0,1,189,53.73v-17Zm-.9,13.41V37.62H193.9V49.86h-.6V37.62h-3.42V50.13A3.18,3.18,0,0,0,193,53.28h1.14a3.18,3.18,0,0,0,3.15-3.15Z" transform="translate(-188.98 -36.72)"/><path class="cls-1" d="M197.64,57.78v-17a4.06,4.06,0,0,1,4.05-4.05h1.13a3.93,3.93,0,0,1,2.87,1.19,3.89,3.89,0,0,1,1.18,2.86v17Zm8.33-4.5V40.77a3.16,3.16,0,0,0-3.15-3.15h-1.13a3.18,3.18,0,0,0-3.15,3.15V53.28H202V41h.59V53.28Z" transform="translate(-188.98 -36.72)"/><path class="cls-1" d="M206.3,57.78V36.72h5.22V57.78ZM210.62,41V37.62H207.2V41Zm0,12.24V41.65H207.2V53.28Z" transform="translate(-188.98 -36.72)"/><path class="cls-1" d="M211,57.78v-17a4.06,4.06,0,0,1,4.05-4.05h1.14a4,4,0,0,1,1.44.27,3.92,3.92,0,0,1,1.44-.27h1.13a4.06,4.06,0,0,1,4.05,4.05v17Zm12.35-4.5V40.77a3.18,3.18,0,0,0-3.15-3.15H219.1a3.12,3.12,0,0,0-1.44.34,3.17,3.17,0,0,0-1.44-.34h-1.14a3.18,3.18,0,0,0-3.15,3.15V53.28h3.42V41h.6V53.28h3.42V41H220V53.28Z" transform="translate(-188.98 -36.72)"/><path class="cls-1" d="M228.89,57.78h-1.14a4.06,4.06,0,0,1-4.05-4.05v-13a4.06,4.06,0,0,1,4.05-4.05h1.14a4.06,4.06,0,0,1,4.05,4.05v13a4.06,4.06,0,0,1-4.05,4.05ZM232,50.13V40.77a3.18,3.18,0,0,0-3.15-3.15h-1.14a3.18,3.18,0,0,0-3.15,3.15v9.36a3.18,3.18,0,0,0,3.15,3.15h1.14A3.18,3.18,0,0,0,232,50.13Zm-3.42-.27V41H228v8.82Z" transform="translate(-188.98 -36.72)"/><path class="cls-1" d="M236.38,44.35V36.72h5.22v17a3.87,3.87,0,0,1-1.2,2.86,4,4,0,0,1-2.88,1.19h-1.14a4,4,0,0,1-4-4.05V44.35Zm4.32,5.78V41.65h-3.42v8.21h-.6V45.25h-3.42v4.88a3.06,3.06,0,0,0,.92,2.22,3,3,0,0,0,2.2.93h1.14a3.19,3.19,0,0,0,3.18-3.15Zm0-9.09V37.62h-3.42V41Z" transform="translate(-188.98 -36.72)"/><path class="cls-1" d="M246.26,57.78h-1.14a4.06,4.06,0,0,1-4.05-4.05v-13a4.06,4.06,0,0,1,4.05-4.05h1.14a4.06,4.06,0,0,1,4.05,4.05v13a4.06,4.06,0,0,1-4.05,4.05Zm3.15-7.65V40.77a3.18,3.18,0,0,0-3.15-3.15h-1.14A3.18,3.18,0,0,0,242,40.77v9.36a3.18,3.18,0,0,0,3.15,3.15h1.14a3.18,3.18,0,0,0,3.15-3.15ZM246,49.86V41h-.6v8.82Z" transform="translate(-188.98 -36.72)"/><path class="cls-1" d="M249.73,57.78V48.56H255v9.22Zm4.32-4.5V49.46h-3.42v3.82Z" transform="translate(-188.98 -36.72)"/><path class="cls-1" d="M254.41,57.78V36.72h5.22V57.78ZM258.73,41V37.62h-3.42V41Zm0,12.24V41.65h-3.42V53.28Z" transform="translate(-188.98 -36.72)"/><path class="cls-1" d="M264.33,57.78H263.2a3.93,3.93,0,0,1-2.87-1.19,3.89,3.89,0,0,1-1.18-2.86v-13a3.89,3.89,0,0,1,1.18-2.86,3.93,3.93,0,0,1,2.87-1.19h1.13a4.06,4.06,0,0,1,4.05,4.05v13a4.06,4.06,0,0,1-4.05,4.05Zm3.15-7.65V40.77a3.18,3.18,0,0,0-3.15-3.15H263.2a3.16,3.16,0,0,0-3.15,3.15v9.36a3.16,3.16,0,0,0,3.15,3.15h1.13a3.18,3.18,0,0,0,3.15-3.15Zm-3.42-.27V41h-.59v8.82Z" transform="translate(-188.98 -36.72)"/></svg>